# xmcd
#
# Track frame offsets: 
#        150
#        14730
#        33515
#        49380
#        63092
#        81700
#        98477
#        119130
#        136902
#        153757
#        174520
#
# Disc length: 2555 seconds
#
# Revision: 4
# Processed by: cddbd v1.5.2PL0 Copyright (c) Steve Scherf et al.
# Submitted via: ExactAudioCopy v0.99pb5
#
DISCID=9409f90b
DTITLE=Chet Atkins - Read My Licks
DYEAR=1994
DGENRE=Country
TTITLE0=Young Thing
TTITLE1=Mountains Of Illinois
TTITLE2=After You've Gone
TTITLE3=Every Now And Then
TTITLE4=Somebody Loves Me Now
TTITLE5=Norway (Norwegian Mountain Song)
TTITLE6=Read My Licks
TTITLE7=Take A Look At Her Now
TTITLE8=Around The Bend
TTITLE9=Dream
TTITLE10=Vincent
EXTD=
EXTT0=
EXTT1=
EXTT2=
EXTT3=
EXTT4=
EXTT5=
EXTT6=
EXTT7=
EXTT8=
EXTT9=
EXTT10=
PLAYORDER=
